General Info.....................


Complete name                    Smoker indian Anu Ki Chudai By her Boyfriend In Hotel.mp4
Format                           : MPEG-4
Format profile                   : Base Media
Codec ID                         : isom
File size                        : 239 MiB
Duration                         : 30mn 6s
Overall bit rate                 : 1 110 Kbps
Movie name                       : Anu
Encoded date                     : UTC 2009-07-24 02:13:25
Tagged date                      : UTC 2009-07-24 02:13:25
Writing application              : Lavf52.31.0

Video
ID                               : 1
Format                           : AVC
Format/Info                      : Advanced Video Codec
Format profile                   : Baseline@L2.1
Format settings, CABAC           : No
Format settings, ReFrames        : 3 frames
Codec ID                         : avc1
Codec ID/Info                    : Advanced Video Coding
Duration                         : 30mn 6s
Bit rate mode                    : Variable
Bit rate                         : 1 024 Kbps
Width                            : 352 pixels
Height                           : 288 pixels
Display aspect ratio             : 1.222
Frame rate mode                  : Variable
Frame rate                       : 24.867 fps
Original frame rate              : 25.000 fps
Minimum frame rate               : 6.250 fps
Maximum frame rate               : 25.000 fps
Standard                         : PAL
Color space                      : YUV
Chroma subsampling               : 4:2:0
Bit depth                        : 8 bits
Scan type                        : Progressive
Bits/(Pixel*Frame)               : 0.406
Stream size                      : 221 MiB (92%)
Encoded date                     : UTC 2009-07-24 02:13:25
Tagged date                      : UTC 2009-07-24 02:13:25

Audio
ID                               : 2
Format                           : AAC
Format/Info                      : Advanced Audio Codec
Format profile                   : LC
Codec ID                         : 40
Duration                         : 30mn 5s
Bit rate mode                    : Variable
Bit rate                         : 82.2 Kbps
Channel(s)                       : 2 channels
Channel positions                : Front: L R
Sampling rate                    : 32.0 KHz
Compression mode                 : Lossy
Stream size                      : 17.7 MiB (7%)
Encoded date                     : UTC 2009-07-24 02:13:25
Tagged date                      : UTC 2009-07-24 02:13:25

